<?xml version="1.0" encoding="UTF-8"?>
<svg width="1440px" height="430px" viewBox="0 0 1440 430" version="1.1" xmlns="http://www.w3.org/2000/svg" xmlns:xlink="http://www.w3.org/1999/xlink">
    <!-- Generator: Sketch 47.1 (45422) - http://www.bohemiancoding.com/sketch -->
    <title>bg-svg-footerfooter</title>
    <desc>Created with Sketch.</desc>
    <defs>
        <linearGradient x1="0%" y1="0.00185506888%" x2="100%" y2="100%" id="linearGradient-1">
            <stop stop-color="#64E8DE" offset="0%"></stop>
            <stop stop-color="#64BBE8" offset="31.1882175%"></stop>
            <stop stop-color="#6473E5" offset="77.734375%"></stop>
            <stop stop-color="#8A64E8" offset="100%"></stop>
        </linearGradient>
    </defs>
    <g id="Welcome" stroke="none" stroke-width="1" fill="none" fill-rule="evenodd">
        <g id="Desktop-HD" transform="translate(0.000000, -3154.000000)" fill="url(#linearGradient-1)">
            <g id="footer" transform="translate(-386.000000, 3154.000000)">
                <path d="M0,0.78660389 C0,0.78660389 107.32624,79.1307405 272.412224,77.3659394 C382.416459,76.1933535 482.931427,-9.02640042 629.560483,0.786603909 C728.575501,7.41349096 837.427808,100.586694 947.998315,99.2482877 C1060.92829,97.8802708 1179.20049,4.43464886 1351.17218,0.78660389 C1523.14387,-2.86144108 1671.34001,118.216938 1808.82613,121.124714 C2045.02644,126.123009 2208.08918,22.8051616 2212,33.6071652 L2212,261 L0,261 L0,0.78660389 Z" id="Fill-1" opacity="0.200000003"></path>
                <path d="M0,189.281588 C0,189.281588 78.3807511,41.5257037 356.561871,46.1333888 C578.12169,49.805231 622.98768,145.028736 751.861749,145.237363 C858.008256,145.404265 979.137376,42.0681346 1089.65479,46.1333885 C1199.15764,50.1628777 1298.41451,155.436263 1405.65227,156.246929 C1510.12355,157.033753 1598.19484,38.8969982 1765.24089,35.1238227 C1932.28693,31.3506471 1981.61038,114.837369 2054.43532,145.237361 C2167.69562,192.506369 2212,200.291153 2212,200.291153 L2212,264 L0,264 L0,189.281588 Z" id="Fill-3" opacity="0.400000006"></path>
                <path d="M2212,133.480775 C2103.03393,133.480775 2086.96006,214.020774 1743.44531,209.218011 C1650.28177,207.91775 1453.04805,93.9106897 1351.17218,90.2031907 C1233.54687,85.9158458 1111.95175,177.250349 991.583563,176.758358 C868.602261,176.254654 757.795808,95.3339477 642.89568,90.2031907 C516.90016,84.5745862 386.639904,197.837804 283.31296,187.57629 C65.3808213,165.940427 0,101.021122 0,101.021122 L0,261 L2212,261 L2212,133.480775 Z" id="Fill-5" opacity="0.600000024"></path>
                <path d="M2212,200.579219 C2198.56874,210.910018 2108.25425,225.602182 1928.68704,189.619434 C1844.7962,172.802958 1770.35503,92.7615175 1667.16965,90.9635668 C1564.42078,89.17155 1432.12548,181.199328 1318.48177,178.653715 C1155.03562,175.004409 1092.96395,91.3848688 980.688725,90.9635668 C872.566165,90.5541325 787.802325,152.687272 686.480928,156.734145 C534.932384,162.786652 402.967413,80.4428852 283.31296,80.0037817 C81.366208,79.2561191 0,189.619434 0,189.619434 L0,429.796676 L2212,429.796676 L2212,200.579219 Z" id="Fill-7"></path>
            </g>
        </g>
    </g>
</svg>