
<svg width="1440px" height="887px" viewBox="0 0 1440 887" version="1.1" xmlns="http://www.w3.org/2000/svg" xmlns:xlink="http://www.w3.org/1999/xlink">
    <!-- Generator: Sketch 47.1 (45422) - http://www.bohemiancoding.com/sketch -->
    <desc>Created with Sketch.</desc>
    <defs>
        <linearGradient x1="0%" y1="0.00185506888%" x2="100%" y2="100%" id="linearGradient-1">
            <stop stop-color="#64E8DE" offset="0%"></stop>
            <stop stop-color="#64BBE8" offset="31.1882175%"></stop>
            <stop stop-color="#6473E5" offset="77.734375%"></stop>
            <stop stop-color="#8A64E8" offset="100%"></stop>
        </linearGradient>
        <path d="M58.930963,483.743335 C175.888733,481.552019 176.509121,404.843479 339.126315,354.909346 C501.743509,304.975214 543.877806,261.42373 734.838164,276.195543 C925.798523,290.967356 864.374674,398.270394 1052.53002,410.094967 C1240.68537,421.919541 1312.41167,313.808539 1498.46029,324.185175 C1622.49271,331.102933 1622.49271,239.374541 1498.46029,49 L57.136522,49 C-19.6390303,340.289767 -19.0408833,485.204212 58.930963,483.743335 Z" id="path-2"></path>
    </defs>
    <g id="Welcome" stroke="none" stroke-width="1" fill="none" fill-rule="evenodd">
        <g id="Desktop-HD">
            <g id="header" transform="translate(-83.000000, -98.000000)">
                <g id="Group" transform="translate(26.000000, 0.000000)">
                    <g id="Group-3">
                        <mask id="mask-3" fill="white">
                            <use xlink:href="#path-2"></use>
                        </mask>
                        <use id="Path" fill-opacity="0.600000024" fill="url(#linearGradient-1)" xlink:href="#path-2"></use>
                        <path d="M24.430773,412.91961 C62.3900348,357.219609 126.331667,334.688238 216.255669,345.325495 C351.141672,361.281381 401.626531,386.230891 496.103005,384.152986 C590.57948,382.07508 667.119367,247.302606 777.602756,225.015148 C888.086144,202.727691 900.572871,346.653418 1121.14362,322.651284 C1341.71438,298.64915 1400.41191,146.497823 1499.148,146.497823 C1564.97206,146.497823 1564.97206,97.986297 1499.148,0.96324564 L24.430773,15.8893966 L24.430773,412.91961 Z" id="Path-2" fill-opacity="0.600000024" fill="url(#linearGradient-1)"></path>
                        <path d="M36.4522404,173.809578 C85.3567211,173.809578 138.066101,267.579315 330.542236,263.581381 C523.018372,259.583447 527.096234,129.120636 682.837648,126.557552 C838.579062,123.994468 839.354072,180.700714 987.265792,231.178138 C1135.17751,281.655562 1162.77626,228.85369 1291.01079,299.262876 C1419.24532,369.672061 1410.05318,512.122881 1497.03634,510.995688 C1555.02511,510.244226 1569.36355,361.441164 1540.05166,64.5865007 L1438.15351,22 L36.4522404,31.9221144 C3.84925321,126.513757 3.84925321,173.809578 36.4522404,173.809578 Z" id="Path-3" fill-opacity="0.699999988" fill="url(#linearGradient-1)"></path>
                    </g>
                </g>
                <path d="M174.546463,954.197481 C298.046201,939.938534 290.407612,908.777735 303.190415,825.553529 C315.973218,742.329323 191.759104,682.297401 131.46177,708.015443 C71.164436,733.733486 99.5551551,779.870177 45.9025101,825.553529 C-7.75013498,871.23688 51.0467245,968.456429 174.546463,954.197481 Z" id="v" fill-opacity="0.699999988" fill="url(#linearGradient-1)" transform="translate(165.053244, 828.805649) rotate(-180.000000) translate(-165.053244, -828.805649) "></path>
                <path d="M175.09305,912.070836 C298.592788,897.811888 290.9542,866.651089 303.737002,783.426883 C316.519805,700.202677 192.305691,640.170755 132.008357,665.888798 C71.7110234,691.60684 100.101742,737.743532 46.4490975,783.426883 C-7.20354758,829.110235 51.5933119,926.329783 175.09305,912.070836 Z" id="v-copy" fill-opacity="0.699999988" fill="url(#linearGradient-1)" transform="translate(165.599831, 786.679004) rotate(-166.000000) translate(-165.599831, -786.679004) "></path>
                <path d="M1378.09305,984.070836 C1501.59279,969.811888 1493.9542,938.651089 1506.737,855.426883 C1519.51981,772.202677 1395.30569,712.170755 1335.00836,737.888798 C1274.71102,763.60684 1303.10174,809.743532 1249.4491,855.426883 C1195.79645,901.110235 1254.59331,998.329783 1378.09305,984.070836 Z" id="v-copy-2" fill-opacity="0.699999988" fill="url(#linearGradient-1)" transform="translate(1368.599831, 858.679004) rotate(-166.000000) translate(-1368.599831, -858.679004) "></path>
                <polyline id="Path-4" stroke="#6DD4E5" opacity="0.495414402" points="363.630198 361 363.630198 638.275415 274 698.566406"></polyline>
                <polyline id="Path-4-Copy" stroke="#6DD4E5" opacity="0.495414402" points="1080.6302 407 1080.6302 684.275415 1249.80078 792.703125"></polyline>
                <rect id="Rectangle-2" fill="#A2C5F0" transform="translate(364.401641, 624.744787) rotate(-345.000000) translate(-364.401641, -624.744787) " x="353.401641" y="621.744787" width="22" height="6"></rect>
                <rect id="Rectangle-2-Copy" fill="#A2C5F0" transform="translate(1081.401641, 670.744787) rotate(-345.000000) translate(-1081.401641, -670.744787) " x="1070.40164" y="667.744787" width="22" height="6"></rect>
            </g>
        </g>
    </g>
</svg>
