<?xml version="1.0" encoding="UTF-8"?>
<svg width="1440px" height="413px" viewBox="0 0 1440 413" version="1.1" xmlns="http://www.w3.org/2000/svg" xmlns:xlink="http://www.w3.org/1999/xlink">
    <!-- Generator: Sketch 47.1 (45422) - http://www.bohemiancoding.com/sketch -->
    <title>Group 3bg</title>
    <desc>Created with Sketch.</desc>
    <defs>
        <linearGradient x1="100%" y1="50%" x2="-1.35917284e-14%" y2="50%" id="linearGradient-1">
            <stop stop-color="#4AF2A1" offset="0%"></stop>
            <stop stop-color="#5CC9F5" offset="100%"></stop>
        </linearGradient>
    </defs>
    <g id="Welcome" stroke="none" stroke-width="1" fill="none" fill-rule="evenodd">
        <g id="Desktop-HD" fill="url(#linearGradient-1)">
            <g id="Group" transform="translate(-58.000000, -98.000000)">
                <g id="Group-3">
                    <path d="M59.2778583,483.743335 C176.235628,481.552019 176.856016,404.843479 339.47321,354.909346 C502.090405,304.975214 544.224701,261.42373 735.185059,276.195543 C926.145418,290.967356 864.721569,398.270394 1052.87692,410.094967 C1241.03226,421.919541 1312.75857,313.808539 1498.80719,324.185175 C1622.8396,331.102933 1622.8396,239.374541 1498.80719,49 L57.4834173,49 C-19.292135,340.289767 -18.693988,485.204212 59.2778583,483.743335 Z" id="Path" fill-opacity="0.600000024"></path>
                    <path d="M25.430773,412.91961 C63.3900348,357.219609 127.331667,334.688238 217.255669,345.325495 C352.141672,361.281381 402.626531,386.230891 497.103005,384.152986 C591.57948,382.07508 668.119367,247.302606 778.602756,225.015148 C889.086144,202.727691 901.572871,346.653418 1122.14362,322.651284 C1342.71438,298.64915 1401.41191,146.497823 1500.148,146.497823 C1565.97206,146.497823 1565.97206,97.986297 1500.148,0.96324564 L25.430773,15.8893966 L25.430773,412.91961 Z" id="Path-2" fill-opacity="0.600000024"></path>
                    <path d="M37.4522404,173.809578 C86.3567211,173.809578 139.066101,267.579315 331.542236,263.581381 C524.018372,259.583447 528.096234,129.120636 683.837648,126.557552 C839.579062,123.994468 840.354072,180.700714 988.265792,231.178138 C1136.17751,281.655562 1163.77626,228.85369 1292.01079,299.262876 C1420.24532,369.672061 1411.05318,512.122881 1498.03634,510.995688 C1556.02511,510.244226 1570.36355,361.441164 1541.05166,64.5865007 L1439.15351,22 L37.4522404,31.9221144 C4.84925321,126.513757 4.84925321,173.809578 37.4522404,173.809578 Z" id="Path-3" fill-opacity="0.699999988"></path>
                </g>
            </g>
        </g>
    </g>
</svg>