
<svg width="960px" height="371px" viewBox="0 0 960 371" version="1.1" xmlns="http://www.w3.org/2000/svg" xmlns:xlink="http://www.w3.org/1999/xlink">
    <!-- Generator: Sketch 47.1 (45422) - http://www.bohemiancoding.com/sketch -->
    <desc>Created with Sketch.</desc>
    <defs>
        <linearGradient x1="338.174866%" y1="452.031765%" x2="-51.0151646%" y2="-71.8042248%" id="linearGradient-1">
            <stop stop-color="#64E8DE" offset="0%"></stop>
            <stop stop-color="#64BBE8" offset="31.1882175%"></stop>
            <stop stop-color="#6473E5" offset="77.734375%"></stop>
            <stop stop-color="#8A64E8" offset="100%"></stop>
        </linearGradient>
        <linearGradient x1="-18.8742387%" y1="76.270258%" x2="124.094996%" y2="7.24822645%" id="linearGradient-2">
            <stop stop-color="#64E8DE" offset="0%"></stop>
            <stop stop-color="#64BBE8" offset="31.1882175%"></stop>
            <stop stop-color="#6473E5" offset="77.734375%"></stop>
            <stop stop-color="#8A64E8" offset="100%"></stop>
        </linearGradient>
        <linearGradient x1="-27.5916931%" y1="69.0791533%" x2="114.966835%" y2="7.83905927%" id="linearGradient-3">
            <stop stop-color="#64E8DE" offset="0%"></stop>
            <stop stop-color="#64BBE8" offset="31.1882175%"></stop>
            <stop stop-color="#6473E5" offset="77.734375%"></stop>
            <stop stop-color="#8A64E8" offset="100%"></stop>
        </linearGradient>
    </defs>
    <g id="Welcome" stroke="none" stroke-width="1" fill="none" fill-rule="evenodd">
        <g id="Desktop-HD" transform="translate(-245.000000, -2361.000000)">
            <path d="M1182.55898,2503.37842 C1192.19847,2497.61168 1198.15658,2499.27105 1199.86176,2488.16923 C1201.56694,2477.06741 1197.29336,2472.90749 1189.24991,2476.33818 C1181.20645,2479.76888 1185.55108,2480.57961 1178.394,2486.67361 C1171.23693,2492.7676 1172.9195,2509.14516 1182.55898,2503.37842 Z" id="v-copy-6" fill-opacity="0.699999988" fill="url(#linearGradient-1)" transform="translate(1187.110342, 2489.878381) rotate(-205.000000) translate(-1187.110342, -2489.878381) "></path>
            <path d="M573.725065,2898.43557 C590.901991,2891.38712 677.342711,2776.06609 760.104388,2674.82764 C899.264615,2504.5995 1180.35266,2342.77557 1167.07542,2293.02916 C1158.66116,2261.50309 1094.39034,2265.33086 1069.63362,2241.19026 C1018.93818,2191.75651 931.106429,2127.85371 893.176582,2120.90764 C854.438332,2113.81353 740.050451,2304.07126 570.067207,2425.86913 C567.519478,2427.69465 563.135724,2427.74179 560.571455,2429.66059 C465.68839,2500.66003 360.885633,2633.16969 350.013588,2653.5332 C331.639322,2687.9485 461.816399,2828.30453 514.36101,2866.34891 C545.343968,2888.78181 556.79967,2905.3808 573.725065,2898.43557 Z" id="v-copy-4" fill-opacity="0.75" fill="url(#linearGradient-2)" transform="translate(757.890542, 2510.374552) scale(1, -1) rotate(-315.000000) translate(-757.890542, -2510.374552) "></path>
            <path d="M553.323117,2910.8267 C569.965087,2903.99777 634.019059,2848.0321 714.203218,2749.9466 C849.029459,2585.02002 1109.06284,2416.14782 1096.19911,2367.95071 C1088.0469,2337.40648 957.007538,2272.34485 933.021832,2248.95609 C883.905246,2201.06189 871.485878,2178.25552 834.737313,2171.52578 C797.205521,2164.65261 560.477463,2421.16901 532.37028,2456.34009 C504.263097,2491.51117 275.087464,2704.42704 264.554016,2724.15635 C246.751996,2757.49982 412.904567,2886.55554 463.812736,2923.41507 C493.830765,2945.14932 536.924843,2917.55563 553.323117,2910.8267 Z" id="v-copy-5" fill-opacity="0.74000001" fill="url(#linearGradient-3)" transform="translate(679.942550, 2551.502351) rotate(-315.000000) translate(-679.942550, -2551.502351) "></path>
        </g>
    </g>
</svg>
